<svg width="109" height="29" viewBox="0 0 109 29" fill="none" xmlns="http://www.w3.org/2000/svg"><path d="M12.7006 0.65357C9.19218 0.650595 5.5316 1.94444 1.83696 3.62272C1.3678 3.77739 0.910001 4.28006 0.66793 4.9017C0.445389 5.48765 0.364547 6.07583 0.295059 6.69226C-0.0637322 9.98488 -0.0201322 13.218 0.0543512 16.8006C0.0707012 17.6208 0.145185 18.5927 0.37908 19.1838C0.623422 19.7809 1.04216 20.1602 1.5422 20.2843C2.18103 20.4378 2.82187 20.5679 3.46423 20.6747L3.32253 27.1425C3.30073 27.657 3.45424 28.0846 3.64499 28.3307C3.81576 28.5434 4.00606 28.6378 4.20135 28.6616C4.59193 28.71 5.05018 28.4363 5.27772 27.7269C6.27462 24.586 6.90001 23.1992 8.14669 21.1127C11.3976 21.2436 14.2357 20.9476 17.4489 20.5587C18.5848 20.5104 19.3646 18.9898 19.5708 17.7755C20.1871 14.6286 20.2829 10.7441 20.3483 6.81719C20.376 5.26085 20.0463 3.73278 19.4627 2.92524C18.9077 2.18834 18.2355 1.92139 17.6197 1.64775C15.9089 1.01347 14.1976 0.672903 12.7006 0.65357ZM17.374 3.11485C17.9908 3.38924 18.5344 3.65321 18.8773 4.10903C19.4495 5.1047 19.4305 5.76724 19.4223 6.84172C19.3578 10.6504 19.2461 14.3468 18.7211 17.1479C18.4949 18.1926 18.1007 18.9362 17.3558 19.0485C14.0822 19.4448 11.2418 19.7512 7.9514 19.598C7.88733 19.5947 7.82352 19.6128 7.76392 19.6515C7.70431 19.6901 7.65018 19.7483 7.60487 19.8226C6.22239 22.1084 5.51525 23.6967 4.46158 27.0175C4.43706 27.0934 4.38392 27.1395 4.31852 27.1477C4.27447 27.144 4.25676 27.0882 4.25403 27.0376L4.39664 20.0241C4.40527 19.6456 4.21452 19.2842 3.98471 19.2433C3.21631 19.1232 2.45001 18.9694 1.68663 18.7823C1.3569 18.6998 1.23518 18.5518 1.14481 18.3317C0.987664 17.7182 0.991297 17.339 0.979034 16.7493C0.905459 13.1987 0.869126 10.0957 1.20203 7.00829C1.23291 6.55172 1.33737 6.08475 1.44819 5.69437C1.63167 5.22442 1.9128 5.15526 2.19484 5.02737C5.80819 3.3937 9.34342 2.17198 12.6716 2.16826C14.3029 2.26493 16.016 2.53262 17.374 3.11485ZM4.89395 9.13049C4.39618 10.1068 4.44569 11.4326 4.83037 12.3205C5.03111 12.7852 5.34448 13.1593 5.72598 13.244C6.22148 13.311 6.53576 12.9823 6.87503 12.6045C7.48951 11.7301 7.55173 10.2042 7.0844 9.10224C6.84641 8.54083 6.46582 8.20398 6.07706 8.18019C5.54477 8.18911 5.18326 8.57801 4.89395 9.12975V9.13049ZM10.2786 8.33337C9.7826 8.35939 9.38157 8.92155 9.13678 9.52831C8.85656 10.2221 8.69306 11.0906 8.91968 11.942C9.35568 13.5801 10.8622 13.5601 11.463 11.8952C11.7401 11.1278 11.6692 10.2555 11.463 9.62275C11.2577 8.9907 10.9471 8.47539 10.4952 8.35716C10.4236 8.33789 10.3511 8.32992 10.2786 8.33337ZM14.6499 8.48729C14.4955 8.48134 14.3365 8.50514 14.1876 8.56983C13.5917 8.83008 13.0844 9.8369 13.1611 11.1255C13.2002 11.774 13.3823 12.406 13.7107 12.8418C14.0391 13.2768 14.5159 13.4716 15.0187 13.3028C15.5964 13.1094 15.9543 12.3473 16.0737 11.6111C16.1932 10.875 16.1632 10.1247 15.8857 9.51642C15.7413 9.20207 15.5549 8.94593 15.3408 8.76756C15.1267 8.5892 14.8906 8.49333 14.6504 8.48729H14.6499ZM6.03663 9.69413C6.14791 9.69562 6.23556 9.75362 6.32594 9.96629C6.52804 10.4437 6.47173 11.1672 6.26781 11.4572C6.06479 11.7472 5.93808 11.7725 5.84906 11.7531C5.76005 11.7331 5.66967 11.6327 5.58883 11.4453C5.43441 11.0884 5.38899 10.5113 5.59201 10.0994C5.7001 9.86442 5.89857 9.71793 6.03709 9.69413H6.03663ZM10.3435 9.85996C10.3608 9.86442 10.5542 10.0481 10.6469 10.3329C10.7395 10.6177 10.7568 10.8824 10.6687 11.1255C10.4066 11.8513 9.84936 11.655 9.76489 11.339C9.7331 11.2185 9.75717 10.7344 9.91022 10.3574C10.0624 9.97893 10.254 9.8369 10.3435 9.85921V9.85996ZM15.1413 10.4162C15.1695 10.4779 15.2381 10.8921 15.1849 11.2207C15.1313 11.5494 15.0441 11.7524 14.8307 11.8238C14.5573 11.916 14.4037 11.8238 14.2888 11.6699C14.1735 11.5174 14.0958 11.2594 14.079 10.9835C14.0381 10.2994 14.188 10.141 14.426 10.0369C14.703 9.92539 15.0164 10.1202 15.1413 10.4162Z" fill="white"/><path d="M26.1643 3.71499C26.1716 3.52166 26.2147 3.34766 26.2947 3.19373C26.3336 3.11828 26.3824 3.0583 26.4376 3.01837C26.4928 2.97843 26.5528 2.95957 26.613 2.96322H29.7132C29.8176 2.96322 29.9253 3.03461 30.0365 3.17663C30.0887 3.23792 30.1311 3.3188 30.1601 3.41248C30.1892 3.50616 30.2042 3.60991 30.2037 3.71499V11.8149H35.3907V3.71499C35.3907 3.50976 35.4343 3.33353 35.5211 3.18556C35.6083 3.03684 35.7209 2.96248 35.8603 2.96248H38.9187C39.0577 2.96248 39.1794 3.01973 39.2838 3.1335C39.3883 3.24802 39.4405 3.4302 39.4405 3.68079V27.5872C39.4405 27.8378 39.3951 28.0259 39.3043 28.1508C39.2143 28.2765 39.0958 28.339 38.95 28.339H35.8603C35.7213 28.339 35.6083 28.2765 35.5211 28.1508C35.4343 28.0259 35.3907 27.8385 35.3907 27.5872V17.8811H30.2037V27.5872C30.2037 27.8266 30.1564 28.011 30.0629 28.1427C29.9689 28.2735 29.8417 28.339 29.6814 28.339H26.613C26.321 28.339 26.1716 28.1166 26.1643 27.6727V3.71499ZM54.7201 28.049C54.6297 28.1739 54.5338 28.2535 54.433 28.2877C54.3388 28.3209 54.2428 28.3383 54.1464 28.3397H52.5705C52.4451 28.3397 52.337 28.3025 52.2467 28.2282C52.1558 28.1538 52.0795 28.0542 52.0168 27.9293C51.9527 27.7995 51.9001 27.6555 51.8606 27.5017C51.8186 27.3409 51.7836 27.1754 51.7562 27.0065L51.4328 24.8188C51.3283 25.172 51.1771 25.5736 50.9786 26.0234C50.7639 26.5008 50.5092 26.9264 50.222 27.2875C49.9159 27.6816 49.5503 28.0118 49.1261 28.2795C48.7014 28.5472 48.2146 28.681 47.6646 28.681C46.8716 28.681 46.1513 28.4304 45.5041 27.9293C44.8705 27.4445 44.3067 26.7456 43.85 25.8784C43.3945 25.0129 43.0411 24.0016 42.7909 22.8446C42.5402 21.689 42.4149 20.4554 42.4149 19.146V7.95271C42.4149 7.51994 42.4725 7.19276 42.5874 6.97043C42.7019 6.74809 42.8845 6.6373 43.1352 6.6373H45.5459C45.8456 6.6373 46.0505 6.71909 46.1617 6.88491C46.273 7.04999 46.3289 7.37197 46.3289 7.85009V18.9742C46.3289 19.465 46.397 19.929 46.5323 20.3677C46.6681 20.8064 46.8471 21.1931 47.0701 21.5292C47.2926 21.8653 47.5447 22.1307 47.8267 22.3241C48.1083 22.5174 48.3953 22.6141 48.6878 22.6141C48.9381 22.6141 49.1974 22.5174 49.4653 22.3241C49.7351 22.1283 49.9849 21.8659 50.2061 21.5463C50.4323 21.2221 50.6185 20.8399 50.7647 20.4011C50.911 19.9624 50.9836 19.4984 50.9836 19.0091V7.9014C50.9836 7.70807 51.0063 7.51474 51.0517 7.32066C51.0972 7.12732 51.1648 6.97861 51.2552 6.87599C51.3456 6.78527 51.431 6.72281 51.5109 6.68861C51.5908 6.6544 51.6835 6.63656 51.7875 6.63656H54.1464C54.4453 6.63656 54.661 6.75702 54.7932 6.99571C54.9253 7.23515 54.9916 7.55414 54.9916 7.95271V27.0749C54.9916 27.2905 54.9621 27.4905 54.9031 27.6727C54.844 27.8549 54.7623 27.9977 54.6578 28.0995L54.7201 28.049ZM66.8377 25.6903C66.6497 25.9981 66.4426 26.3283 66.2168 26.6815C65.9907 27.0347 65.7418 27.3656 65.4706 27.6727C65.1977 27.9818 64.9035 28.2371 64.5941 28.4334C64.2709 28.6358 63.9273 28.7372 63.5813 28.7323C62.6353 28.7323 61.7637 28.4423 60.9667 27.8608C60.1897 27.3026 59.4902 26.4916 58.9107 25.4769C58.3366 24.4686 57.8879 23.2811 57.5645 21.9136C57.2407 20.5469 57.079 19.0776 57.079 17.5049C57.079 15.921 57.2407 14.4487 57.5645 13.0879C57.8879 11.7272 58.3366 10.5419 58.9107 9.53358C59.4895 8.51988 60.1893 7.71152 60.9667 7.15856C61.7637 6.58302 62.6353 6.29525 63.5813 6.29525C63.9642 6.29525 64.3139 6.38671 64.6304 6.56889C64.9359 6.74215 65.2269 6.97748 65.4965 7.26935C65.7577 7.55415 65.9975 7.87612 66.2168 8.23453C66.4357 8.59368 66.6428 8.94391 66.8377 9.28597V1.47604C66.8377 1.11168 66.9058 0.804581 67.0411 0.553991C67.1769 0.302657 67.3804 0.177734 67.652 0.177734H70C70.0909 0.177734 70.1863 0.208965 70.2871 0.271427C70.3879 0.334632 70.4801 0.422375 70.5641 0.536888C70.6472 0.650658 70.7149 0.787478 70.7671 0.946606C70.8194 1.10648 70.8457 1.28271 70.8457 1.47604V27.0236C70.8457 27.901 70.5641 28.3397 70 28.3397H67.9545C67.8155 28.3397 67.7074 28.31 67.6311 28.2535C67.5553 28.1978 67.4889 28.1128 67.4376 28.0058C67.3795 27.8804 67.3321 27.7426 67.2968 27.5961C67.2476 27.4032 67.1955 27.2123 67.1406 27.0236L66.8377 25.6903ZM60.8363 17.5049C60.8328 18.2235 60.9052 18.9377 61.0502 19.6159C61.1928 20.2703 61.3963 20.8376 61.6611 21.3158C61.9284 21.7977 62.2533 22.1844 62.6157 22.452C62.9882 22.7316 63.4005 22.8706 63.8529 22.8706C64.298 22.8706 64.7172 22.7397 65.1105 22.478C65.4925 22.2275 65.8414 21.8589 66.1383 21.3924C66.4332 20.9251 66.6723 20.3718 66.8431 19.7609C67.0203 19.1341 67.1197 18.4619 67.1406 17.7443V17.5049C67.1422 16.7898 67.057 16.0813 66.8899 15.4206C66.7281 14.7729 66.4926 14.1814 66.1959 13.6776C65.8985 13.1744 65.544 12.7711 65.1523 12.4901C64.7428 12.1964 64.2999 12.0479 63.8529 12.0544C63.4005 12.0544 62.9882 12.1994 62.6157 12.4901C62.2433 12.7801 61.9254 13.1764 61.6611 13.6776C61.3924 14.1906 61.1852 14.7819 61.0502 15.4206C60.9069 16.0903 60.8347 16.7952 60.8368 17.5049H60.8363ZM82.9633 25.6903C82.7753 25.9981 82.5682 26.3283 82.342 26.6815C82.1159 27.0347 81.867 27.3656 81.5958 27.6727C81.3229 27.9818 81.0287 28.2371 80.7193 28.4334C80.3961 28.6358 80.0525 28.7372 79.7065 28.7323C78.7605 28.7323 77.8889 28.4423 77.0923 27.8608C76.3152 27.3027 75.6155 26.4916 75.0358 25.4769C74.4622 24.4686 74.0131 23.2811 73.6897 21.9136C73.3663 20.5469 73.2042 19.0776 73.2042 17.5049C73.2042 15.921 73.3663 14.4487 73.6897 13.0879C74.0131 11.7272 74.4618 10.5419 75.0358 9.53358C75.6148 8.5198 76.3148 7.71143 77.0923 7.15856C77.8889 6.58302 78.7605 6.29525 79.7065 6.29525C80.0894 6.29525 80.4391 6.38671 80.7556 6.56889C81.0611 6.74215 81.3521 6.97748 81.6217 7.26935C81.8829 7.55415 82.1227 7.87612 82.342 8.23453C82.5614 8.59368 82.768 8.94391 82.9629 9.28597V1.47604C82.9629 1.11168 83.031 0.804581 83.1663 0.553991C83.3026 0.302657 83.5056 0.177734 83.7772 0.177734H86.1252C86.2161 0.177734 86.3115 0.208965 86.4123 0.271427C86.5136 0.334632 86.6058 0.422375 86.6893 0.536888C86.7724 0.650658 86.8406 0.787478 86.8928 0.946606C86.9446 1.10648 86.9709 1.28271 86.9709 1.47604V27.0236C86.9709 27.901 86.6893 28.3397 86.1252 28.3397H84.0797C83.9407 28.3397 83.8326 28.31 83.7563 28.2535C83.6807 28.1977 83.6145 28.1127 83.5633 28.0058C83.5051 27.8804 83.4578 27.7426 83.4225 27.5961C83.3731 27.4032 83.3209 27.2123 83.2658 27.0236L82.9629 25.6903H82.9633ZM76.9615 17.5049C76.958 18.2235 77.0304 18.9377 77.1754 19.6159C77.3185 20.2703 77.522 20.8376 77.7863 21.3158C78.0537 21.7977 78.3788 22.1845 78.7414 22.452C79.1138 22.7316 79.5257 22.8706 79.9781 22.8706C80.4232 22.8706 80.8424 22.7397 81.2357 22.478C81.6178 22.2276 81.9669 21.859 82.2639 21.3924C82.5585 20.925 82.7973 20.3717 82.9679 19.7609C83.1455 19.1341 83.2449 18.4619 83.2658 17.7443V17.5049C83.2674 16.7898 83.1822 16.0813 83.0151 15.4206C82.8533 14.7729 82.6178 14.1814 82.3211 13.6776C82.0237 13.1744 81.6692 12.7711 81.2775 12.4901C80.868 12.1964 80.4251 12.0479 79.9781 12.0544C79.5257 12.0544 79.1134 12.1994 78.7414 12.4901C78.369 12.7801 78.0506 13.1764 77.7863 13.6776C77.5176 14.1906 77.3104 14.7819 77.1754 15.4206C77.032 16.0903 76.9598 16.7952 76.962 17.5049H76.9615ZM89.7477 1.49314C89.7477 1.12879 89.8031 0.821683 89.9144 0.571093C90.0261 0.31976 90.2173 0.194837 90.4884 0.194837H93.0454C93.1153 0.194837 93.1884 0.226068 93.2647 0.288529C93.345 0.355889 93.4174 0.445734 93.4787 0.553991C93.545 0.66776 93.6004 0.804581 93.6458 0.963709C93.6912 1.12358 93.7139 1.29981 93.7139 1.49314V27.0236C93.7139 27.4563 93.639 27.7835 93.4891 28.0058C93.3397 28.2282 93.1467 28.339 92.91 28.339H90.4884C90.2173 28.339 90.0261 28.2274 89.9144 28.0058C89.8031 27.7835 89.7477 27.4556 89.7477 27.0236V1.49314ZM107.324 25.7416C106.719 26.6569 106.019 27.3888 105.257 27.9032C104.486 28.4236 103.66 28.688 102.825 28.681C101.872 28.681 100.971 28.3962 100.122 27.8259C99.2926 27.2769 98.5345 26.4738 97.8886 25.4598C97.2452 24.4439 96.7278 23.2339 96.3649 21.8965C95.9888 20.5298 95.8013 19.0434 95.8013 17.4365C95.8013 16.4341 95.8757 15.463 96.0256 14.5231C96.1704 13.6034 96.3843 12.7168 96.6624 11.8833C96.9372 11.063 97.2738 10.3023 97.6643 9.61909C98.0536 8.93472 98.4978 8.33966 98.9845 7.85009C99.4798 7.35423 100.013 6.96911 100.571 6.70497C101.158 6.42801 101.766 6.29003 102.376 6.29525C102.954 6.29525 103.514 6.42091 104.057 6.6715C104.599 6.92209 105.109 7.2753 105.586 7.73038C106.063 8.1862 106.499 8.73348 106.896 9.37148C107.287 9.99885 107.631 10.7017 107.918 11.4647C108.204 12.2221 108.427 13.0379 108.582 13.891C108.738 14.7514 108.816 15.637 108.816 16.5479C108.816 17.1405 108.811 17.6246 108.8 18.0008C108.79 18.3764 108.736 18.676 108.639 18.8976C108.541 19.1207 108.38 19.2739 108.153 19.3586C107.927 19.4449 107.595 19.4873 107.157 19.4873H99.6422C99.7116 20.216 99.8524 20.8257 100.065 21.3165C100.261 21.781 100.511 22.1783 100.8 22.4862C101.079 22.7769 101.374 22.9844 101.688 23.1108C101.978 23.2311 102.276 23.294 102.575 23.2982C102.825 23.2982 103.082 23.255 103.347 23.1703C103.607 23.0866 103.864 22.9723 104.114 22.8282C104.349 22.6949 104.575 22.529 104.792 22.3323C104.998 22.1449 105.163 21.9478 105.288 21.7433C105.4 21.5946 105.495 21.4838 105.575 21.4095C105.655 21.3351 105.741 21.2987 105.831 21.2987C105.922 21.2987 106.014 21.3507 106.108 21.4526C106.223 21.5835 106.329 21.7322 106.426 21.8965L107.532 23.9473C107.609 24.096 107.658 24.2299 107.679 24.3489C107.7 24.4686 107.71 24.5913 107.71 24.7162C107.71 24.9445 107.671 25.1408 107.595 25.3059C107.518 25.4719 107.426 25.6187 107.323 25.7416H107.324ZM102.304 11.5071C102.032 11.5071 101.769 11.5956 101.516 11.7718C101.258 11.9519 101.017 12.1907 100.8 12.4812C100.578 12.7771 100.378 13.1132 100.2 13.4895C100.031 13.8442 99.8856 14.2282 99.7671 14.6346H105.1C104.96 14.2062 104.802 13.7949 104.626 13.404C104.458 13.0331 104.262 12.6998 104.041 12.4128C103.816 12.1223 103.561 11.897 103.29 11.7465C103.008 11.5866 102.679 11.5071 102.304 11.5071Z" fill="white"/></svg>